<?xml version="1.0" encoding="UTF-8"?>
<svg width="355px" height="278px" viewBox="0 0 355 278" version="1.1" xmlns="http://www.w3.org/2000/svg" xmlns:xlink="http://www.w3.org/1999/xlink">
    <!-- Generator: Sketch 54.1 (76490) - https://sketchapp.com -->
    <title>Artboard</title>
    <desc>Created with Sketch.</desc>
    <defs>
        <rect id="path-1" x="33" y="46.9344588" width="196" height="196" rx="22"></rect>
        <filter x="-3.6%" y="-2.6%" width="107.1%" height="107.1%" filterUnits="objectBoundingBox" id="filter-2">
            <feOffset dx="0" dy="2" in="SourceAlpha" result="shadowOffsetOuter1"></feOffset>
            <feGaussianBlur stdDeviation="2" in="shadowOffsetOuter1" result="shadowBlurOuter1"></feGaussianBlur>
            <feColorMatrix values="0 0 0 0 0   0 0 0 0 0   0 0 0 0 0  0 0 0 0.139586976 0" type="matrix" in="shadowBlurOuter1"></feColorMatrix>
        </filter>
        <filter x="-2.3%" y="-1.3%" width="104.6%" height="104.6%" filterUnits="objectBoundingBox" id="filter-3">
            <feOffset dx="0" dy="-1" in="SourceAlpha" result="shadowOffsetInner1"></feOffset>
            <feComposite in="shadowOffsetInner1" in2="SourceAlpha" operator="arithmetic" k2="-1" k3="1" result="shadowInnerInner1"></feComposite>
            <feColorMatrix values="0 0 0 0 1   0 0 0 0 1   0 0 0 0 1  0 0 0 0.1698809 0" type="matrix" in="shadowInnerInner1"></feColorMatrix>
        </filter>
        <rect id="path-4" x="73.0655412" y="41" width="196" height="196" rx="22"></rect>
        <filter x="-3.6%" y="-2.6%" width="107.1%" height="107.1%" filterUnits="objectBoundingBox" id="filter-5">
            <feOffset dx="0" dy="2" in="SourceAlpha" result="shadowOffsetOuter1"></feOffset>
            <feGaussianBlur stdDeviation="2" in="shadowOffsetOuter1" result="shadowBlurOuter1"></feGaussianBlur>
            <feColorMatrix values="0 0 0 0 0   0 0 0 0 0   0 0 0 0 0  0 0 0 0.139586976 0" type="matrix" in="shadowBlurOuter1"></feColorMatrix>
        </filter>
        <filter x="-2.3%" y="-1.3%" width="104.6%" height="104.6%" filterUnits="objectBoundingBox" id="filter-6">
            <feOffset dx="0" dy="-1" in="SourceAlpha" result="shadowOffsetInner1"></feOffset>
            <feComposite in="shadowOffsetInner1" in2="SourceAlpha" operator="arithmetic" k2="-1" k3="1" result="shadowInnerInner1"></feComposite>
            <feColorMatrix values="0 0 0 0 1   0 0 0 0 1   0 0 0 0 1  0 0 0 0.1698809 0" type="matrix" in="shadowInnerInner1"></feColorMatrix>
        </filter>
        <rect id="path-7" x="114.626902" y="47.1692116" width="196" height="196" rx="22"></rect>
        <filter x="-3.6%" y="-2.6%" width="107.1%" height="107.1%" filterUnits="objectBoundingBox" id="filter-8">
            <feOffset dx="0" dy="2" in="SourceAlpha" result="shadowOffsetOuter1"></feOffset>
            <feGaussianBlur stdDeviation="2" in="shadowOffsetOuter1" result="shadowBlurOuter1"></feGaussianBlur>
            <feColorMatrix values="0 0 0 0 0   0 0 0 0 0   0 0 0 0 0  0 0 0 0.139586976 0" type="matrix" in="shadowBlurOuter1"></feColorMatrix>
        </filter>
        <filter x="-2.3%" y="-1.3%" width="104.6%" height="104.6%" filterUnits="objectBoundingBox" id="filter-9">
            <feOffset dx="0" dy="-1" in="SourceAlpha" result="shadowOffsetInner1"></feOffset>
            <feComposite in="shadowOffsetInner1" in2="SourceAlpha" operator="arithmetic" k2="-1" k3="1" result="shadowInnerInner1"></feComposite>
            <feColorMatrix values="0 0 0 0 1   0 0 0 0 1   0 0 0 0 1  0 0 0 0.1698809 0" type="matrix" in="shadowInnerInner1"></feColorMatrix>
        </filter>
        <path d="M292.461917,52.9344588 L334.392149,52.9344588 C338.810427,52.9344588 342.392149,56.5161808 342.392149,60.9344588 L342.392149,259.934459 C342.392149,264.352737 338.810427,267.934459 334.392149,267.934459 L291.461917,267.934459 C287.043639,267.934459 283.461917,264.352737 283.461917,259.934459 L283.461917,190.051806 L220.322382,190.051806 L220.322382,259.934459 C220.322382,264.352737 216.74066,267.934459 212.322382,267.934459 L169.392149,267.934459 C164.973871,267.934459 161.392149,264.352737 161.392149,259.934459 L161.392149,60.9344588 C161.392149,56.5161808 164.973871,52.9344588 169.392149,52.9344588 L212.322382,52.9344588 C216.74066,52.9344588 220.322382,56.5161808 220.322382,60.9344588 L220.322382,130.817112 L283.461917,130.817112 L283.461917,61.9344588 C283.461917,56.9638961 287.491354,52.9344588 292.461917,52.9344588 Z" id="path-10"></path>
        <filter x="-3.3%" y="-2.8%" width="106.6%" height="105.6%" filterUnits="objectBoundingBox" id="filter-11">
            <feOffset dx="0" dy="0" in="SourceAlpha" result="shadowOffsetOuter1"></feOffset>
            <feGaussianBlur stdDeviation="2" in="shadowOffsetOuter1" result="shadowBlurOuter1"></feGaussianBlur>
            <feComposite in="shadowBlurOuter1" in2="SourceAlpha" operator="out" result="shadowBlurOuter1"></feComposite>
            <feColorMatrix values="0 0 0 0 0.344684103   0 0 0 0 0.344684103   0 0 0 0 0.344684103  0 0 0 0.5 0" type="matrix" in="shadowBlurOuter1"></feColorMatrix>
        </filter>
    </defs>
    <g id="Page-1" stroke="none" stroke-width="1" fill="none" fill-rule="evenodd">
        <g id="Artboard">
            <g id="Group">
                <g id="Rectangle" transform="translate(131.000000, 144.934459) rotate(25.000000) translate(-131.000000, -144.934459) ">
                    <use fill="black" fill-opacity="1" filter="url(#filter-2)" xlink:href="#path-1"></use>
                    <use fill="#085CA6" fill-rule="evenodd" xlink:href="#path-1"></use>
                    <use fill="black" fill-opacity="1" filter="url(#filter-3)" xlink:href="#path-1"></use>
                </g>
                <g id="Rectangle-Copy" transform="translate(171.065541, 139.000000) rotate(45.000000) translate(-171.065541, -139.000000) ">
                    <use fill="black" fill-opacity="1" filter="url(#filter-5)" xlink:href="#path-4"></use>
                    <use fill="#328BD9" fill-rule="evenodd" xlink:href="#path-4"></use>
                    <use fill="black" fill-opacity="1" filter="url(#filter-6)" xlink:href="#path-4"></use>
                </g>
                <g id="Rectangle-Copy-2" transform="translate(212.626902, 145.169212) rotate(65.000000) translate(-212.626902, -145.169212) ">
                    <use fill="black" fill-opacity="1" filter="url(#filter-8)" xlink:href="#path-7"></use>
                    <use fill="#4A96D9" fill-rule="evenodd" xlink:href="#path-7"></use>
                    <use fill="black" fill-opacity="1" filter="url(#filter-9)" xlink:href="#path-7"></use>
                </g>
                <g id="Path">
                    <use fill="black" fill-opacity="1" filter="url(#filter-11)" xlink:href="#path-10"></use>
                    <path stroke-opacity="0.75191215" stroke="#C8C8C8" stroke-width="1" d="M292.461917,53.4344588 C287.767496,53.4344588 283.961917,57.2400385 283.961917,61.9344588 L283.961917,131.317112 L219.822382,131.317112 L219.822382,60.9344588 C219.822382,56.7923232 216.464517,53.4344588 212.322382,53.4344588 L169.392149,53.4344588 C165.250013,53.4344588 161.892149,56.7923232 161.892149,60.9344588 L161.892149,259.934459 C161.892149,264.076594 165.250013,267.434459 169.392149,267.434459 L212.322382,267.434459 C216.464517,267.434459 219.822382,264.076594 219.822382,259.934459 L219.822382,189.551806 L283.961917,189.551806 L283.961917,259.934459 C283.961917,264.076594 287.319781,267.434459 291.461917,267.434459 L334.392149,267.434459 C338.534285,267.434459 341.892149,264.076594 341.892149,259.934459 L341.892149,60.9344588 C341.892149,56.7923232 338.534285,53.4344588 334.392149,53.4344588 L292.461917,53.4344588 Z" stroke-linejoin="square" fill="#FBFBFB" fill-rule="evenodd"></path>
                </g>
            </g>
        </g>
    </g>
</svg>